<svg viewBox="0 0 515 121" fill="none" xmlns="http://www.w3.org/2000/svg">
<path d="M10.624 96V25.6C10.624 17.8347 12.928 11.648 17.536 7.04C22.144 2.34667 28.7147 0 37.248 0C40.1493 0 42.9227 0.298668 45.568 0.896004C48.2987 1.49333 50.6027 2.432 52.48 3.71201L47.232 18.176C46.1227 17.408 44.8853 16.8107 43.52 16.384C42.1547 15.9573 40.704 15.744 39.168 15.744C36.2667 15.744 34.0053 16.5973 32.384 18.304C30.848 19.9253 30.08 22.4 30.08 25.728V32.128L30.592 40.704V96H10.624ZM0 44.032V28.672H47.744V44.032H0Z" fill="currentColor"/>
<path d="M90.993 97.024C83.1423 97.024 76.2303 95.488 70.257 92.416C64.369 89.344 59.8037 85.1627 56.561 79.872C53.3183 74.496 51.697 68.3947 51.697 61.568C51.697 54.656 53.2757 48.5547 56.433 43.264C59.6757 37.888 64.0703 33.7067 69.617 30.72C75.1637 27.648 81.4357 26.112 88.433 26.112C95.1743 26.112 101.233 27.5627 106.609 30.464C112.07 33.28 116.38 37.376 119.537 42.752C122.694 48.0427 124.273 54.4 124.273 61.824C124.273 62.592 124.23 63.488 124.145 64.512C124.06 65.4507 123.974 66.3467 123.889 67.2H67.953V55.552H113.393L105.713 59.008C105.713 55.424 104.988 52.3093 103.537 49.664C102.086 47.0187 100.081 44.9707 97.521 43.52C94.961 41.984 91.9743 41.216 88.561 41.216C85.1477 41.216 82.1183 41.984 79.473 43.52C76.913 44.9707 74.9077 47.0613 73.457 49.792C72.0063 52.4373 71.281 55.5947 71.281 59.264V62.336C71.281 66.0907 72.0917 69.4187 73.713 72.32C75.4197 75.136 77.7663 77.312 80.753 78.848C83.825 80.2987 87.409 81.024 91.505 81.024C95.1743 81.024 98.3743 80.4693 101.105 79.36C103.921 78.2507 106.481 76.5867 108.785 74.368L119.409 85.888C116.252 89.472 112.284 92.2453 107.505 94.208C102.726 96.0853 97.2223 97.024 90.993 97.024Z" fill="currentColor"/>
<path d="M171.743 97.024C163.892 97.024 156.98 95.488 151.007 92.416C145.119 89.344 140.554 85.1627 137.311 79.872C134.068 74.496 132.447 68.3947 132.447 61.568C132.447 54.656 134.026 48.5547 137.183 43.264C140.426 37.888 144.82 33.7067 150.367 30.72C155.914 27.648 162.186 26.112 169.183 26.112C175.924 26.112 181.983 27.5627 187.359 30.464C192.82 33.28 197.13 37.376 200.287 42.752C203.444 48.0427 205.023 54.4 205.023 61.824C205.023 62.592 204.98 63.488 204.895 64.512C204.81 65.4507 204.724 66.3467 204.639 67.2H148.703V55.552H194.143L186.463 59.008C186.463 55.424 185.738 52.3093 184.287 49.664C182.836 47.0187 180.831 44.9707 178.271 43.52C175.711 41.984 172.724 41.216 169.311 41.216C165.898 41.216 162.868 41.984 160.223 43.52C157.663 44.9707 155.658 47.0613 154.207 49.792C152.756 52.4373 152.031 55.5947 152.031 59.264V62.336C152.031 66.0907 152.842 69.4187 154.463 72.32C156.17 75.136 158.516 77.312 161.503 78.848C164.575 80.2987 168.159 81.024 172.255 81.024C175.924 81.024 179.124 80.4693 181.855 79.36C184.671 78.2507 187.231 76.5867 189.535 74.368L200.159 85.888C197.002 89.472 193.034 92.2453 188.255 94.208C183.476 96.0853 177.972 97.024 171.743 97.024Z" fill="currentColor"/>
<path d="M218.317 96V1.024H238.285V96H218.317Z" fill="currentColor"/>
<path d="M295.217 96.768C289.585 96.768 284.422 95.488 279.729 92.928C275.121 90.2827 271.409 86.4 268.593 81.28C265.862 76.16 264.497 69.76 264.497 62.08C264.497 54.4 265.82 48 268.465 42.88C271.196 37.76 274.865 33.92 279.473 31.36C284.166 28.8 289.414 27.52 295.217 27.52C301.873 27.52 307.761 28.9707 312.881 31.872C318.001 34.7733 322.054 38.8267 325.041 44.032C328.028 49.152 329.521 55.168 329.521 62.08C329.521 68.992 328.028 75.0507 325.041 80.256C322.054 85.4613 318.001 89.5147 312.881 92.416C307.761 95.3173 301.873 96.768 295.217 96.768ZM259.249 120.832V28.16H271.025V46.464L270.257 62.208L271.537 77.952V120.832H259.249ZM294.193 86.016C298.545 86.016 302.428 85.0347 305.841 83.072C309.34 81.1093 312.07 78.336 314.033 74.752C316.081 71.0827 317.105 66.8587 317.105 62.08C317.105 57.216 316.081 53.0347 314.033 49.536C312.07 45.952 309.34 43.1787 305.841 41.216C302.428 39.2533 298.545 38.272 294.193 38.272C289.926 38.272 286.044 39.2533 282.545 41.216C279.132 43.1787 276.401 45.952 274.353 49.536C272.39 53.0347 271.409 57.216 271.409 62.08C271.409 66.8587 272.39 71.0827 274.353 74.752C276.401 78.336 279.132 81.1093 282.545 83.072C286.044 85.0347 289.926 86.016 294.193 86.016Z" fill="currentColor"/>
<path d="M387.986 96V81.664L387.346 78.976V54.528C387.346 49.3227 385.81 45.312 382.738 42.496C379.751 39.5947 375.229 38.144 369.17 38.144C365.159 38.144 361.234 38.8267 357.394 40.192C353.554 41.472 350.311 43.2213 347.666 45.44L342.546 36.224C346.045 33.408 350.226 31.2747 355.09 29.824C360.039 28.288 365.202 27.52 370.578 27.52C379.879 27.52 387.047 29.7813 392.082 34.304C397.117 38.8267 399.634 45.7387 399.634 55.04V96H387.986ZM365.714 96.768C360.679 96.768 356.242 95.9147 352.402 94.208C348.647 92.5013 345.746 90.1547 343.698 87.168C341.65 84.096 340.626 80.64 340.626 76.8C340.626 73.1307 341.479 69.8027 343.186 66.816C344.978 63.8293 347.837 61.44 351.762 59.648C355.773 57.856 361.149 56.96 367.89 56.96H389.394V65.792H368.402C362.258 65.792 358.119 66.816 355.986 68.864C353.853 70.912 352.786 73.3867 352.786 76.288C352.786 79.616 354.109 82.304 356.754 84.352C359.399 86.3147 363.069 87.296 367.762 87.296C372.37 87.296 376.381 86.272 379.794 84.224C383.293 82.176 385.81 79.1893 387.346 75.264L389.778 83.712C388.157 87.7227 385.298 90.9227 381.202 93.312C377.106 95.616 371.943 96.768 365.714 96.768Z" fill="currentColor"/>
<path d="M422.374 96V28.16H434.15V46.592L432.998 41.984C434.875 37.2907 438.033 33.7067 442.47 31.232C446.907 28.7573 452.369 27.52 458.854 27.52V39.424C458.342 39.3387 457.83 39.296 457.318 39.296C456.891 39.296 456.465 39.296 456.038 39.296C449.467 39.296 444.262 41.2587 440.422 45.184C436.582 49.1093 434.662 54.784 434.662 62.208V96H422.374Z" fill="currentColor"/>
<path d="M500.045 96.768C493.218 96.768 487.928 94.9333 484.173 91.264C480.418 87.5947 478.541 82.3467 478.541 75.52V13.312H490.829V75.008C490.829 78.6773 491.725 81.4933 493.517 83.456C495.394 85.4187 498.04 86.4 501.453 86.4C505.293 86.4 508.493 85.3333 511.053 83.2L514.893 92.032C513.016 93.6533 510.754 94.848 508.109 95.616C505.549 96.384 502.861 96.768 500.045 96.768ZM467.021 38.272V28.16H510.285V38.272H467.021Z" fill="currentColor"/>
</svg>
